<svg xmlns="http://www.w3.org/2000/svg" viewBox="0 0 80 80"><rect width="80" height="80" rx="22" fill="#eaf7f4"/><path d="M20 61c2-13 10-19 20-19s18 6 20 19" fill="#263238"/><circle cx="40" cy="33" r="14" fill="#c98b65"/><path d="M27 31c0-13 7-20 16-20 10 0 17 7 16 20-3-5-7-7-13-7-5 0-11 3-19 7z" fill="#241b16"/><circle cx="35" cy="34" r="1.8" fill="#111827"/><circle cx="45" cy="34" r="1.8" fill="#111827"/><path d="M36 40c3 2 5 2 8 0" fill="none" stroke="#7c3f2d" stroke-width="1.5" stroke-linecap="round"/><path d="M24 34a16 16 0 0 1 32 0" fill="none" stroke="#64748b" stroke-width="3"/><rect x="22" y="34" width="5" height="10" rx="2" fill="#64748b"/><rect x="53" y="34" width="5" height="10" rx="2" fill="#64748b"/></svg>